<svg width="47" height="25" viewBox="0 0 47 25" fill="none" xmlns="http://www.w3.org/2000/svg">
<path d="M13.5744 22.3994C12.5982 22.3994 12.5982 24.0782 13.5744 24.0782C14.5505 24.0782 14.5948 22.3994 13.5744 22.3994Z" fill="#1CA44A"/>
<path d="M10.1586 18.7061C9.18241 18.7061 9.18241 20.289 10.1586 20.289C11.1348 20.289 11.09 18.7061 10.1586 18.7061Z" fill="#188BCB"/>
<path d="M7.62971 19.042C6.3434 19.042 6.3434 21.2003 7.62971 21.2003C8.91601 21.2003 8.91601 19.042 7.62971 19.042Z" fill="#B32025"/>
<path d="M5.54568 12.998C4.4366 12.998 4.4366 14.7726 5.54568 14.7726C6.65477 14.7726 6.61046 12.998 5.54568 12.998Z" fill="#1CA44A"/>
<path d="M13.3974 0C11.9777 0 11.9777 2.44628 13.3974 2.44628C14.8171 2.44628 14.8614 0 13.3974 0Z" fill="#FBC112"/>
<path d="M17.4347 0.671875C16.2813 0.671875 16.2813 2.59068 17.4347 2.59068C18.5881 2.59068 18.5881 0.671875 17.4347 0.671875Z" fill="#E4097E"/>
<path d="M23.3792 4.2207C22.2702 4.2207 22.2702 6.09161 23.3792 6.09161C24.4883 6.09161 24.4883 4.2207 23.3792 4.2207Z" fill="#E21F26"/>
<path d="M20.4959 9.40137C18.899 9.40137 18.899 12.1356 20.4959 12.1356C22.0928 12.1356 22.1371 9.40137 20.4959 9.40137Z" fill="#E21F26"/>
<path d="M28.215 11.7036C26.8396 11.7036 26.8396 14.0062 28.215 14.0062C29.5904 14.0062 29.5461 11.7036 28.215 11.7036Z" fill="#E21F26"/>
<path d="M27.2313 14.2422C25.7811 14.2422 25.7811 16.6927 27.2313 16.6927C28.6815 16.6927 28.6815 14.2422 27.2313 14.2422Z" fill="#D1945F"/>
<path d="M25.9077 17.2676C24.488 17.2676 24.488 19.666 25.9077 19.666C27.3274 19.666 27.3274 17.2676 25.9077 17.2676Z" fill="#188BCB"/>
<path d="M29.9443 21.2007C28.4802 21.2007 28.4802 23.5991 29.9443 23.5991C31.4083 23.5991 31.364 21.2007 29.9443 21.2007Z" fill="#E21F26"/>
<path d="M33.5815 18.083C32.1175 18.083 32.1175 20.5293 33.5815 20.5293C35.0455 20.5293 35.0455 18.083 33.5815 18.083Z" fill="#B32025"/>
<path d="M35.8884 19.2817C34.6021 19.2817 34.6021 21.3922 35.8884 21.3922C37.1747 21.3922 37.1747 19.2817 35.8884 19.2817Z" fill="#EF7E3C"/>
<path d="M43.9622 16.5962C42.6759 16.5962 42.6759 18.7066 43.9622 18.7066C45.2485 18.7066 45.2042 16.5962 43.9622 16.5962Z" fill="#E21F26"/>
<path d="M43.1633 13.2861C41.9657 13.2861 41.9657 15.3007 43.1633 15.3007C44.361 15.3007 44.361 13.2861 43.1633 13.2861Z" fill="#FFCD05"/>
<path d="M39.7029 3.50098C38.4609 3.50098 38.4609 5.6114 39.7029 5.6114C40.9449 5.6114 40.9892 3.50098 39.7029 3.50098Z" fill="#B32025"/>
<path d="M32.9607 2.11035C31.8073 2.11035 31.763 4.07706 32.9607 4.07706C34.1584 4.07706 34.1141 2.11035 32.9607 2.11035Z" fill="#E4097E"/>
<path d="M31.4525 4.55664C30.2548 4.55664 30.2548 6.61916 31.4525 6.61916C32.6502 6.61916 32.6502 4.55664 31.4525 4.55664Z" fill="#E21F26"/>
<path fill-rule="evenodd" clip-rule="evenodd" d="M2.35109 9.97656C3.63739 9.97656 4.70217 11.0799 4.70217 12.5186C4.70217 13.9574 3.63739 15.0128 2.35109 15.0128C1.06478 15.0128 0 13.9094 0 12.5186C0 11.1278 1.06478 9.97656 2.35109 9.97656Z" fill="#9B2584"/>
<path d="M42.1486 21.4488C42.3739 20.0661 41.5198 18.7478 40.241 18.5042C38.9622 18.2607 37.743 19.1841 37.5177 20.5668C37.2925 21.9494 38.1465 23.2678 39.4253 23.5113C40.7041 23.7549 41.9233 22.8314 42.1486 21.4488Z" fill="#E4097E"/>
<path fill-rule="evenodd" clip-rule="evenodd" d="M24.5768 9.44971C25.8631 9.44971 26.9279 10.5531 26.9279 11.9439C26.9279 13.3347 25.8631 14.486 24.5768 14.486C23.2905 14.486 22.27 13.3826 22.27 11.9439C22.27 10.5052 23.2905 9.44971 24.5768 9.44971Z" fill="#1CA44A"/>
<path fill-rule="evenodd" clip-rule="evenodd" d="M4.08176 6.04395C5.10223 6.04395 5.945 6.90728 5.945 8.01066C5.945 9.11404 5.10223 10.0253 4.08176 10.0253C3.06128 10.0253 2.26282 9.11404 2.26282 8.01066C2.26282 6.90728 3.10558 6.04395 4.08176 6.04395Z" fill="#D11D51"/>
<path d="M43.6509 11.8953C44.6555 11.8953 45.4698 11.0148 45.4698 9.92862C45.4698 8.84244 44.6555 7.96191 43.6509 7.96191C42.6463 7.96191 41.832 8.84244 41.832 9.92862C41.832 11.0148 42.6463 11.8953 43.6509 11.8953Z" fill="#1CA44A"/>
<path fill-rule="evenodd" clip-rule="evenodd" d="M16.5466 19.4736C17.5671 19.4736 18.3655 20.3849 18.3655 21.4882C18.3655 22.5916 17.5671 23.455 16.5466 23.455C15.5261 23.455 14.7277 22.5437 14.7277 21.4882C14.7277 20.4328 15.5261 19.4736 16.5466 19.4736Z" fill="#63C3D0"/>
<path fill-rule="evenodd" clip-rule="evenodd" d="M13.0412 18.9468C13.7953 18.9468 14.4166 19.6185 14.4166 20.4818C14.4166 21.2972 13.7953 21.969 13.0412 21.969C12.287 21.969 11.6658 21.2972 11.6658 20.4818C11.6658 19.6185 12.287 18.9468 13.0412 18.9468Z" fill="#027E40"/>
<path fill-rule="evenodd" clip-rule="evenodd" d="M8.6948 15.1084C9.44896 15.1084 10.0702 15.7801 10.0702 16.5955C10.0702 17.411 9.44896 18.0827 8.6948 18.0827C7.94064 18.0827 7.3194 17.411 7.3194 16.5955C7.3194 15.7801 7.94064 15.1084 8.6948 15.1084Z" fill="#E4097E"/>
<path fill-rule="evenodd" clip-rule="evenodd" d="M4.7457 16.0205C5.76617 16.0205 6.56464 16.8838 6.56464 17.9872C6.56464 19.0906 5.76617 20.0018 4.7457 20.0018C3.72522 20.0018 2.92676 19.0906 2.92676 17.9872C2.92676 16.8838 3.72522 16.0205 4.7457 16.0205Z" fill="#2C2F73"/>
<path d="M7.45258 13.1906C8.53056 13.1906 9.40444 12.2457 9.40444 11.0801C9.40444 9.91459 8.53056 8.96973 7.45258 8.96973C6.3746 8.96973 5.50073 9.91459 5.50073 11.0801C5.50073 12.2457 6.3746 13.1906 7.45258 13.1906Z" fill="#FBC112"/>
<path fill-rule="evenodd" clip-rule="evenodd" d="M20.3165 2.1582C21.337 2.1582 22.1354 3.02153 22.1354 4.12491C22.1354 5.22829 21.337 6.13953 20.3165 6.13953C19.296 6.13953 18.4976 5.22829 18.4976 4.12491C18.4976 3.02153 19.296 2.1582 20.3165 2.1582Z" fill="#6BBB45"/>
<path fill-rule="evenodd" clip-rule="evenodd" d="M17.7003 5.37207C18.7651 5.37207 19.6522 6.33121 19.6522 7.53039C19.6522 8.72958 18.7651 9.64082 17.7003 9.64082C16.6355 9.64082 15.7485 8.68168 15.7485 7.53039C15.7485 6.37911 16.5912 5.37207 17.7003 5.37207Z" fill="#02679C"/>
<path fill-rule="evenodd" clip-rule="evenodd" d="M29.9434 16.3081C31.0081 16.3081 31.8952 17.2193 31.8952 18.4185C31.8952 19.6177 31.0081 20.5289 29.9434 20.5289C28.8786 20.5289 27.9472 19.5698 27.9472 18.4185C27.9472 17.2672 28.8343 16.3081 29.9434 16.3081Z" fill="#00A398"/>
<path fill-rule="evenodd" clip-rule="evenodd" d="M36.289 1.9668C37.3095 1.9668 38.108 2.87803 38.108 3.98141C38.108 5.08479 37.3095 5.94812 36.289 5.94812C35.2686 5.94812 34.4701 5.08479 34.4701 3.98141C34.4701 2.87803 35.2686 1.9668 36.289 1.9668Z" fill="#188BCB"/>
<path fill-rule="evenodd" clip-rule="evenodd" d="M8.25083 1.4873C9.0493 1.4873 9.67054 2.15902 9.67054 3.02235C9.67054 3.83778 9.0493 4.50949 8.25083 4.50949C7.49668 4.50949 6.87543 3.83778 6.87543 3.02235C6.87543 2.15902 7.49668 1.4873 8.25083 1.4873Z" fill="#1CA44A"/>
<path fill-rule="evenodd" clip-rule="evenodd" d="M11.6234 2.39795C12.6881 2.39795 13.5752 3.30918 13.5752 4.50837C13.5752 5.70756 12.6881 6.6667 11.6234 6.6667C10.5586 6.6667 9.6272 5.70756 9.6272 4.50837C9.6272 3.30918 10.5143 2.39795 11.6234 2.39795Z" fill="#B32025"/>
<path fill-rule="evenodd" clip-rule="evenodd" d="M18.8199 17.7808C19.3968 17.7808 19.8403 18.3082 19.8403 18.932C19.8403 19.5074 19.3968 20.0354 18.8199 20.0354C18.2429 20.0354 17.7994 19.508 17.7994 18.932C17.7994 18.3082 18.2429 17.7808 18.8199 17.7808Z" fill="#EF7E3C"/>
<path fill-rule="evenodd" clip-rule="evenodd" d="M21.4705 16.8364C22.0475 16.8364 22.5353 17.316 22.5353 17.9398C22.5353 18.5636 22.0475 19.0432 21.4705 19.0432C20.8936 19.0432 20.4501 18.5636 20.4501 17.9398C20.4501 17.316 20.8936 16.8364 21.4705 16.8364Z" fill="#027E40"/>
<path d="M32.5171 23.1198C33.1786 23.1198 33.7148 22.54 33.7148 21.8248C33.7148 21.1096 33.1786 20.5298 32.5171 20.5298C31.8556 20.5298 31.3194 21.1096 31.3194 21.8248C31.3194 22.54 31.8556 23.1198 32.5171 23.1198Z" fill="#B2B3B3"/>
<path d="M35.8898 24.7024C36.6739 24.7024 37.3095 24.0152 37.3095 23.1674C37.3095 22.3196 36.6739 21.6323 35.8898 21.6323C35.1057 21.6323 34.4701 22.3196 34.4701 23.1674C34.4701 24.0152 35.1057 24.7024 35.8898 24.7024Z" fill="#6BBB45"/>
<path fill-rule="evenodd" clip-rule="evenodd" d="M28.7464 5.18018C29.5449 5.18018 30.1661 5.85189 30.1661 6.71522C30.1661 7.53065 29.5449 8.25027 28.7464 8.25027C27.9923 8.25027 27.3267 7.53065 27.3267 6.71522C27.3267 5.85189 27.9923 5.18018 28.7464 5.18018Z" fill="#027E40"/>
<path d="M23.9123 15.9689C24.104 15.2844 23.7463 14.5614 23.1132 14.3541C22.4801 14.1468 21.8115 14.5336 21.6198 15.2181C21.428 15.9026 21.7858 16.6256 22.4189 16.8329C23.0519 17.0402 23.7206 16.6534 23.9123 15.9689Z" fill="#B2B3B3"/>
<path d="M41.3886 15.9727C39.9689 15.9727 39.9246 18.371 41.3886 18.371C42.8526 18.371 42.8083 15.9727 41.3886 15.9727Z" fill="#E21F26"/>
<path d="M41.033 6.52344C39.6133 6.52344 39.6133 8.92181 41.033 8.92181C42.4528 8.92181 42.4528 6.52344 41.033 6.52344Z" fill="#AECA36"/>
<path d="M10.0701 20.6729C8.29548 20.6729 8.29548 23.6466 10.0701 23.6466C11.8447 23.6466 11.8447 20.6729 10.0701 20.6729Z" fill="#E21F26"/>
<path fill-rule="evenodd" clip-rule="evenodd" d="M15.5803 2.8584C16.2208 2.8584 16.7485 3.42898 16.7485 4.16244C16.7485 4.85492 16.2208 5.4255 15.5803 5.4255C14.9399 5.4255 14.4122 4.85492 14.4122 4.16244C14.4122 3.42898 14.9399 2.8584 15.5803 2.8584Z" fill="#027E40"/>
<path fill-rule="evenodd" clip-rule="evenodd" d="M14.3491 5.6123C14.8517 5.6123 15.2657 6.05994 15.2657 6.63531C15.2657 7.17875 14.8517 7.62639 14.3491 7.62639C13.8465 7.62639 13.4325 7.17875 13.4325 6.63531C13.4325 6.05994 13.8465 5.6123 14.3491 5.6123Z" fill="#EF7E3C"/>
<path fill-rule="evenodd" clip-rule="evenodd" d="M7.64912 4.74854C8.4594 4.74854 9.12642 5.46975 9.12642 6.39748C9.12642 7.27359 8.4594 7.9948 7.64912 7.9948C6.83884 7.9948 6.17181 7.27359 6.17181 6.39748C6.17181 5.46975 6.83884 4.74854 7.64912 4.74854Z" fill="#EF7E3C"/>
<path d="M20.4097 19.5034C19.4542 19.5034 19.4542 21.1391 20.4097 21.1391C21.3652 21.1391 21.3918 19.5034 20.4097 19.5034Z" fill="#E21F26"/>
<path fill-rule="evenodd" clip-rule="evenodd" d="M22.0484 6.60156C22.7474 6.60156 23.3228 7.22378 23.3228 8.0243C23.3228 8.78011 22.7474 9.40233 22.0484 9.40233C21.3493 9.40233 20.7739 8.78011 20.7739 8.0243C20.7739 7.22431 21.3493 6.60156 22.0484 6.60156Z" fill="#EF7E3C"/>
<path d="M25.3265 7.06299C24.2736 7.06299 24.2736 8.84181 25.3265 8.84181C26.3795 8.84181 26.3795 7.06299 25.3265 7.06299Z" fill="#188BCB"/>
<path fill-rule="evenodd" clip-rule="evenodd" d="M45.6874 12.2793C46.3363 12.2793 46.8704 12.8568 46.8704 13.5993C46.8704 14.3008 46.3363 14.8783 45.6874 14.8783C45.0386 14.8783 44.5045 14.3008 44.5045 13.5993C44.5045 12.8568 45.0386 12.2793 45.6874 12.2793Z" fill="#EF7E3C"/>
<path d="M42.5966 5.06592C41.4186 5.06592 41.4186 6.93735 42.5966 6.93735C43.7746 6.93735 43.7746 5.06592 42.5966 5.06592Z" fill="#E21F26"/>
</svg>
